M48
; DRILL file {KiCad 9.0.6} date 2026-03-10T20:27:06-0600
; FORMAT={-:-/ absolute / metric / decimal}
; #@! TF.CreationDate,2026-03-10T20:27:06-06:00
; #@! TF.GenerationSoftware,Kicad,Pcbnew,9.0.6
; #@! TF.FileFunction,Plated,1,2,PTH
FMAT,2
METRIC
; #@! TA.AperFunction,Plated,PTH,ComponentDrill
T1C0.800
; #@! TA.AperFunction,Plated,PTH,ComponentDrill
T2C1.000
; #@! TA.AperFunction,Plated,PTH,ComponentDrill
T3C1.016
; #@! TA.AperFunction,Plated,PTH,ComponentDrill
T4C1.100
; #@! TA.AperFunction,Plated,PTH,ComponentDrill
T5C1.600
; #@! TA.AperFunction,Plated,PTH,ComponentDrill
T6C1.760
%
G90
G05
T1
X139.36Y-100.904
X149.52Y-100.904
X151.82Y-114.154
X151.82Y-124.314
X151.82Y-127.404
X151.82Y-137.564
X156.77Y-124.324
X156.77Y-134.484
X156.77Y-137.574
X156.77Y-147.734
T2
X141.4Y-95.654
X143.94Y-95.654
X146.48Y-95.654
X149.02Y-95.654
X153.77Y-96.154
X153.77Y-101.904
X153.77Y-107.654
T3
X151.86Y-74.404
X154.4Y-60.434
X154.4Y-74.404
X156.94Y-60.434
X156.94Y-74.404
X159.48Y-74.404
X167.23Y-74.404
X169.77Y-60.434
X169.77Y-74.404
X172.31Y-60.434
X172.31Y-74.404
X174.85Y-74.404
T4
X145.27Y-119.364
X145.27Y-121.904
X145.27Y-124.444
X145.27Y-132.114
X145.27Y-134.654
X145.27Y-137.194
X162.53Y-92.744
X162.53Y-95.284
X162.53Y-97.824
X162.53Y-100.364
X162.53Y-102.904
X162.53Y-105.444
X162.53Y-107.984
X162.53Y-110.524
X162.53Y-113.064
X162.53Y-115.604
X162.53Y-118.144
X162.53Y-120.684
X162.53Y-123.224
X162.53Y-125.764
X177.77Y-92.744
X177.77Y-95.284
X177.77Y-97.824
X177.77Y-100.364
X177.77Y-102.904
X177.77Y-105.444
X177.77Y-107.984
X177.77Y-110.524
X177.77Y-113.064
X177.77Y-115.604
X177.77Y-118.144
X177.77Y-120.684
X177.77Y-123.224
X177.77Y-125.764
T5
X131.28Y-110.154
X131.4Y-145.404
X146.52Y-110.154
X146.64Y-145.404
T6
X128.44Y-77.307
X128.44Y-81.757
X128.44Y-86.207
X128.52Y-125.454
X128.52Y-129.904
X134.79Y-77.307
X134.79Y-81.757
X134.79Y-86.207
X134.87Y-125.454
X134.87Y-129.904
M30
